<?xml version="1.0" encoding="UTF-8"?>
<svg id="_Слой_1" data-name="Слой 1" xmlns="http://www.w3.org/2000/svg" viewBox="0 0 42.93 42.86">
  <defs>
    <style>
      .cls-1 {
        fill: #f9b566;
        fill-rule: evenodd;
      }
    </style>
  </defs>
  <path class="cls-1" d="m40.7,1.87c-2.49-2.49-6.54-2.49-9.03,0l-3.58,3.57L11.27,22.24c-.27.27-.47.61-.56.99l-2.13,8.5c-.18.72.03,1.49.56,2.02.53.53,1.3.74,2.02.56l8.51-2.12c.37-.09.72-.29.99-.56l16.71-16.68,3.7-3.69c2.49-2.49,2.49-6.53,0-9.02l-.37-.36Zm-6.02,3.01c.83-.83,2.18-.83,3.01,0l.37.36c.83.83.83,2.18,0,3.01l-2.16,2.16-3.31-3.43,2.1-2.1Zm-5.11,5.1l3.31,3.43-14.81,14.79-4.5,1.12,1.13-4.49,14.88-14.85Zm-25.31,3.14c0-1.17.95-2.12,2.13-2.12h10.64c1.18,0,2.13-.95,2.13-2.12s-.95-2.12-2.13-2.12H6.39c-3.53,0-6.39,2.85-6.39,6.38v23.38c0,3.52,2.86,6.38,6.39,6.38h23.41c3.53,0,6.39-2.85,6.39-6.38v-10.63c0-1.17-.95-2.12-2.13-2.12s-2.13.95-2.13,2.12v10.63c0,1.17-.95,2.12-2.13,2.12H6.39c-1.18,0-2.13-.95-2.13-2.12V13.11Z"/>
  <path class="cls-1" d="m40.7,1.87c-2.49-2.49-6.54-2.49-9.03,0l-3.58,3.57L11.27,22.24c-.27.27-.47.61-.56.99l-2.13,8.5c-.18.72.03,1.49.56,2.02.53.53,1.3.74,2.02.56l8.51-2.12c.37-.09.72-.29.99-.56l16.71-16.68,3.7-3.69c2.49-2.49,2.49-6.53,0-9.02l-.37-.36Zm-6.02,3.01c.83-.83,2.18-.83,3.01,0l.37.36c.83.83.83,2.18,0,3.01l-2.16,2.16-3.31-3.43,2.1-2.1Zm-5.11,5.1l3.31,3.43-14.81,14.79-4.5,1.12,1.13-4.49,14.88-14.85Zm-25.31,3.14c0-1.17.95-2.12,2.13-2.12h10.64c1.18,0,2.13-.95,2.13-2.12s-.95-2.12-2.13-2.12H6.39c-3.53,0-6.39,2.85-6.39,6.38v23.38c0,3.52,2.86,6.38,6.39,6.38h23.41c3.53,0,6.39-2.85,6.39-6.38v-10.63c0-1.17-.95-2.12-2.13-2.12s-2.13.95-2.13,2.12v10.63c0,1.17-.95,2.12-2.13,2.12H6.39c-1.18,0-2.13-.95-2.13-2.12V13.11Z"/>
</svg>