<?xml version="1.0" encoding="UTF-8"?><svg id="_Слой_1" xmlns="http://www.w3.org/2000/svg" xmlns:xlink="http://www.w3.org/1999/xlink" viewBox="0 0 382.21 431.09"><defs><style>.cls-1{fill:#fff;}.cls-2{fill:url(#_Безымянный_градиент_306);}</style><linearGradient id="_Безымянный_градиент_306" x1="376.24" y1="222.43" x2="-104.32" y2="212.77" gradientUnits="userSpaceOnUse"><stop offset="0" stop-color="#ffd774"/><stop offset="1" stop-color="#c36f1a"/></linearGradient></defs><path class="cls-2" d="m0,215.54v182.04c0,25.75,27.87,41.84,50.17,28.97l157.66-91.02,157.66-91.02c22.3-12.87,22.3-45.06,0-57.94l-157.66-91.02L50.17,4.53C27.87-8.34,0,7.75,0,33.5v182.04Z"/><path class="cls-1" d="m29.36,182.37v114.49c0,3.32,2.69,6.02,6.02,6.02h193.57c3.32,0,6.02-2.69,6.02-6.02v-114.49c0-3.32-2.69-6.02-6.02-6.02H35.37c-3.32,0-6.02,2.69-6.02,6.02Zm179.02,71.62h-35.88v26.69H55.95v-82.15h152.43v55.46Z"/><path class="cls-1" d="m234.94,130.59l.02,37.37c0,2.26-1.83,4.09-4.08,4.09H33.44c-2.26,0-4.08-1.83-4.08-4.08v-37.34c0-2.26,1.83-4.08,4.08-4.08h26.64v12.32c0,6.52,6.82,11.8,13.33,11.8s13.33-5.28,13.33-11.8v-12.32l93.12-.03v12.32c0,6.52,6.84,11.83,13.36,11.83s13.32-5.28,13.32-11.8l-.03-12.35h24.34c2.25,0,4.08,1.83,4.08,4.08Z"/><rect class="cls-1" x="183.28" y="106.22" width="19.87" height="40.63" rx="9.93" ry="9.93"/><rect class="cls-1" x="63.28" y="106.22" width="19.87" height="40.63" rx="9.93" ry="9.93"/><rect class="cls-1" x="66.67" y="207.34" width="26" height="15.91"/><rect class="cls-1" x="101.67" y="207.34" width="26" height="15.91"/><rect class="cls-1" x="66.87" y="255.97" width="26" height="15.91"/><rect class="cls-1" x="101.86" y="255.97" width="26" height="15.91"/><rect class="cls-1" x="66.67" y="231.66" width="26" height="15.91"/><rect class="cls-1" x="101.67" y="231.66" width="26" height="15.91"/><rect class="cls-1" x="136.66" y="207.34" width="26" height="15.91"/><rect class="cls-1" x="171.65" y="207.34" width="26" height="15.91"/><rect class="cls-1" x="136.86" y="255.97" width="26" height="15.91"/><rect class="cls-1" x="136.66" y="231.66" width="26" height="15.91"/><rect class="cls-1" x="171.65" y="231.66" width="26" height="15.91"/></svg>