<?xml version="1.0" encoding="UTF-8"?>
<svg id="_Слой_1" data-name="Слой 1" xmlns="http://www.w3.org/2000/svg" viewBox="0 0 54.17 48.75">
  <defs>
    <style>
      .cls-1 {
        fill: #f9b566;
        fill-rule: evenodd;
      }
    </style>
  </defs>
  <path class="cls-1" d="m40.62,0c4.33,0,7.86,3.38,8.11,7.65v.48s.01,11.78.01,11.78l1.61-.71c1.66-.74,3.58.41,3.79,2.16l.02.32v21.67c0,2.86-2.21,5.2-5.01,5.4h-.4s-43.33.01-43.33.01C2.56,48.75.22,46.54.01,43.74v-.4s-.01-21.67-.01-21.67c0-1.82,1.83-3.11,3.51-2.59l.3.11,1.61.71v-11.78C5.42,3.8,8.8.26,13.06.01h.48s27.08-.01,27.08-.01Zm8.12,25.83l-19.47,8.65c-1.4.62-3,.62-4.4,0L5.42,25.83v17.5h43.33v-17.5Zm-8.12-20.42H13.54c-1.5,0-2.71,1.21-2.71,2.71v14.19l16.25,7.22,16.25-7.22v-14.19c0-1.5-1.21-2.71-2.71-2.71Zm-13.54,8.12c1.5,0,2.71,1.21,2.71,2.71,0,1.39-1.05,2.53-2.39,2.69l-.32.02h-5.42c-1.5,0-2.71-1.21-2.71-2.71,0-1.39,1.05-2.53,2.39-2.69l.32-.02h5.42Z"/>
</svg>