<?xml version="1.0" encoding="UTF-8"?>
<svg id="_Слой_1" data-name="Слой 1" xmlns="http://www.w3.org/2000/svg" viewBox="0 0 39 47.5">
  <defs>
    <style>
      .cls-1, .cls-2 {
        stroke-linecap: round;
      }

      .cls-1, .cls-2, .cls-3 {
        fill: none;
        stroke: #f9b566;
      }

      .cls-1, .cls-3 {
        stroke-miterlimit: 10;
        stroke-width: 4px;
      }

      .cls-2 {
        stroke-linejoin: round;
        stroke-width: 3px;
      }

      .cls-3 {
        isolation: isolate;
        opacity: .4;
      }
    </style>
  </defs>
  <path class="cls-1" d="m19.55,3.5c-7.22,0-13.09,5.9-13.09,13.16v6.34c0,1.34-.57,3.38-1.24,4.52l-2.51,4.19c-1.55,2.59-.48,5.46,2.36,6.43,9.4,3.16,19.55,3.16,28.95,0,2.64-.88,3.8-4.01,2.36-6.43l-2.51-4.19c-.65-1.14-1.22-3.18-1.22-4.52v-6.34c0-7.24-5.89-13.16-13.09-13.16Z"/>
  <path class="cls-2" d="m24,4.5c-.75-.21-1.53-.38-2.34-.48-2.34-.29-4.57-.12-6.66.48.71-1.76,2.46-3,4.5-3s3.79,1.24,4.5,3Z"/>
  <path class="cls-3" d="m27,38.5c0,3.85-3.15,7-7,7-1.91,0-3.69-.79-4.95-2.05-1.26-1.26-2.05-3.03-2.05-4.95"/>
</svg>